<?xml version="1.0" encoding="UTF-8" standalone="no"?>
<svg xmlns="http://www.w3.org/2000/svg" height="304" width="304" version="1.1">

<rect style="fill:#fff;" y="0" x="0" height="304" width="304" />
<path style="fill:#000;" d="m 32,32 0,112 112,0 0,-112 z m 128,0 0,16 16,0 0,-16 z m 32,0 0,48 -16,0 0,32 -16,0 0,32 16,0 0,-16 16,0 0,-16 16,0 0,-32 32,0 0,16 16,0 0,32 16,0 0,-96 -16,0 0,16 -16,0 0,-16 -16,0 0,16 -16,0 0,-16 z m 0,96 0,16 16,0 0,-16 z m 16,16 0,16 16,0 0,-16 z m 16,0 16,0 0,-32 -16,0 z m 0,16 0,48 16,0 0,-16 16,0 0,16 16,0 0,-32 -32,0 0,-16 z m 32,48 -16,0 0,16 16,0 z m -32,0 -16,0 0,-48 -48,0 0,32 16,0 0,-16 16,0 0,64 16,0 0,-16 16,0 z m -32,32 -16,0 0,-16 -16,0 0,16 -32,0 0,-16 32,0 0,-16 -32,0 0,-48 -32,0 0,16 -16,0 0,16 16,0 0,16 16,0 0,16 -32,0 0,-16 -16,0 0,48 -32,0 0,16 96,0 0,-16 48,0 0,16 16,0 z m -128,-32 0,-16 -32,0 0,16 z M 48,48 l 80,0 0,80 -80,0 z m 16,16 0,48 48,0 0,-48 z m 192,80 0,16 16,0 0,-16 z m -224,16 0,16 16,0 0,-16 z m 0,64 0,16 16,0 0,-16 z m 64,16 16,0 0,16 -16,0 z m 128,0 0,16 -16,0 0,16 64,0 0,-16 0,-16 -16,0 0,16 -16,0 0,-16 z" />
</svg>
